HIERARCHY
ROOT Hips
{
	OFFSET 0.000000 83.214638 0.000000
	CHANNELS 6 Xposition Yposition Zposition Xrotation Yrotation Zrotation
	JOINT Pelvis
	{
		OFFSET 0.000000 0.000000 0.000000
		CHANNELS 3 Xrotation Yrotation Zrotation
		JOINT LeftUpLeg
		{
			OFFSET 8.479700 -4.795502 -0.379100
			CHANNELS 3 Xrotation Yrotation Zrotation
			JOINT LeftLeg
			{
				OFFSET 0.024144 -32.555107 0.112900
				CHANNELS 3 Xrotation Yrotation Zrotation
				JOINT LeftFoot
				{
					OFFSET -0.024144 -32.638630 -3.012600
					CHANNELS 3 Xrotation Yrotation Zrotation
					JOINT LeftToeBase
					{
						OFFSET 0.970200 -13.225400 11.864200
						CHANNELS 3 Xrotation Yrotation Zrotation
						End Site
						{
							OFFSET 0.000000 12.319262 0.000000
						}
					}
					JOINT LFootTongue
					{
						OFFSET 1.142400 -1.059800 6.665200
						CHANNELS 3 Xrotation Yrotation Zrotation
						End Site
						{
							OFFSET 0.000000 12.319262 0.000000
						}
					}
				}
				JOINT LeftPantLeg
				{
					OFFSET 0.918482 -16.533964 -2.284700
					CHANNELS 3 Xrotation Yrotation Zrotation
					End Site
					{
						OFFSET 0.350399 24.744368 0.000000
					}
				}
			}
		}
		JOINT RightUpLeg
		{
			OFFSET -8.479700 -4.795502 -0.379100
			CHANNELS 3 Xrotation Yrotation Zrotation
			JOINT RightLeg
			{
				OFFSET -0.023144 -32.555092 0.112900
				CHANNELS 3 Xrotation Yrotation Zrotation
				JOINT RightFoot
				{
					OFFSET 0.023144 -32.638641 -3.012700
					CHANNELS 3 Xrotation Yrotation Zrotation
					JOINT RightToeBase
					{
						OFFSET -0.970200 -13.225400 11.864200
						CHANNELS 3 Xrotation Yrotation Zrotation
						End Site
						{
							OFFSET 0.000000 12.319244 0.000000
						}
					}
					JOINT RFootTongue
					{
						OFFSET -1.142200 -1.059800 6.665200
						CHANNELS 3 Xrotation Yrotation Zrotation
						End Site
						{
							OFFSET 0.000000 12.319243 0.000000
						}
					}
				}
				JOINT RightPantLeg
				{
					OFFSET -0.919482 -16.533978 -2.284800
					CHANNELS 3 Xrotation Yrotation Zrotation
					End Site
					{
						OFFSET -0.350400 24.744419 0.000000
					}
				}
			}
		}
	}
	JOINT Spine
	{
		OFFSET 0.000000 7.722000 1.166200
		CHANNELS 3 Xrotation Yrotation Zrotation
		JOINT Spine1
		{
			OFFSET 0.000000 12.024101 0.248800
			CHANNELS 3 Xrotation Yrotation Zrotation
			JOINT Spine2
			{
				OFFSET 0.000000 11.502998 -0.491200
				CHANNELS 3 Xrotation Yrotation Zrotation
				JOINT Neck
				{
					OFFSET 0.000000 18.430702 -3.123100
					CHANNELS 3 Xrotation Yrotation Zrotation
					JOINT Head
					{
						OFFSET 0.000000 9.051102 1.034000
						CHANNELS 3 Xrotation Yrotation Zrotation
						JOINT HairB
						{
							OFFSET 0.208400 24.786102 24.822300
							CHANNELS 3 Xrotation Yrotation Zrotation
							End Site
							{
								OFFSET 0.000000 32.263779 0.000000
							}
						}
						JOINT HairA
						{
							OFFSET -7.081100 24.428299 23.196600
							CHANNELS 3 Xrotation Yrotation Zrotation
							End Site
							{
								OFFSET 0.000000 32.263779 0.000000
							}
						}
						JOINT Hat
						{
							OFFSET 16.728800 15.048294 -15.439601
							CHANNELS 3 Xrotation Yrotation Zrotation
							End Site
							{
								OFFSET 0.000000 32.263779 0.000000
							}
						}
					}
				}
				JOINT LeftShoulder
				{
					OFFSET 6.197800 13.665199 -4.064700
					CHANNELS 3 Xrotation Yrotation Zrotation
					JOINT LeftArm
					{
						OFFSET 7.778100 -0.187103 -1.709300
						CHANNELS 3 Xrotation Yrotation Zrotation
						JOINT LeftForeArm
						{
							OFFSET 22.049376 0.000000 0.000000
							CHANNELS 3 Xrotation Yrotation Zrotation
							JOINT LeftHand
							{
								OFFSET 23.009392 0.000000 0.000000
								CHANNELS 3 Xrotation Yrotation Zrotation
								JOINT LeftHandThumb1
								{
									OFFSET 3.507191 -2.063065 3.133727
									CHANNELS 3 Xrotation Yrotation Zrotation
									JOINT LeftHandThumb2
									{
										OFFSET 3.101337 -1.790558 1.790558
										CHANNELS 3 Xrotation Yrotation Zrotation
										JOINT LeftHandThumb3
										{
											OFFSET 3.058640 -1.765907 1.765906
											CHANNELS 3 Xrotation Yrotation Zrotation
											End Site
											{
												OFFSET -0.415260 3.926476 -0.049563
											}
										}
									}
								}
								JOINT LeftHandIndex1
								{
									OFFSET 11.334419 -0.901459 3.706815
									CHANNELS 3 Xrotation Yrotation Zrotation
									JOINT LeftHandIndex2
									{
										OFFSET 3.283112 0.000000 0.000000
										CHANNELS 3 Xrotation Yrotation Zrotation
										JOINT LeftHandIndex3
										{
											OFFSET 3.323853 0.000000 0.000000
											CHANNELS 3 Xrotation Yrotation Zrotation
											End Site
											{
												OFFSET -1.135597 3.097809 0.402452
											}
										}
									}
								}
								JOINT LeftHandMiddle1
								{
									OFFSET 11.335861 0.000000 0.000000
									CHANNELS 3 Xrotation Yrotation Zrotation
									JOINT LeftHandMiddle2
									{
										OFFSET 3.410492 0.000000 0.000000
										CHANNELS 3 Xrotation Yrotation Zrotation
										JOINT LeftHandMiddle3
										{
											OFFSET 3.312172 0.000000 0.000000
											CHANNELS 3 Xrotation Yrotation Zrotation
											End Site
											{
												OFFSET -1.150200 3.080154 0.400270
											}
										}
									}
								}
								JOINT LeftHandRing1
								{
									OFFSET 11.514786 -0.013176 -3.003090
									CHANNELS 3 Xrotation Yrotation Zrotation
									JOINT LeftHandRing2
									{
										OFFSET 3.053307 0.000000 0.000000
										CHANNELS 3 Xrotation Yrotation Zrotation
										JOINT LeftHandRing3
										{
											OFFSET 3.295807 0.000000 0.000000
											CHANNELS 3 Xrotation Yrotation Zrotation
											End Site
											{
												OFFSET -1.281006 3.013344 0.375733
											}
										}
									}
								}
								JOINT LeftHandPinky1
								{
									OFFSET 10.518692 -0.960396 -5.730441
									CHANNELS 3 Xrotation Yrotation Zrotation
									JOINT LeftHandPinky2
									{
										OFFSET 2.861649 0.000000 0.000000
										CHANNELS 3 Xrotation Yrotation Zrotation
										JOINT LeftHandPinky3
										{
											OFFSET 2.863380 0.000000 0.000000
											CHANNELS 3 Xrotation Yrotation Zrotation
											End Site
											{
												OFFSET -0.843597 2.711159 0.369971
											}
										}
									}
								}
							}
							JOINT LSleeve
							{
								OFFSET 6.676277 -0.344902 -1.011730
								CHANNELS 3 Xrotation Yrotation Zrotation
								End Site
								{
									OFFSET 0.000000 14.885353 0.000000
								}
							}
						}
					}
				}
				JOINT RightShoulder
				{
					OFFSET -6.197800 13.665199 -4.064700
					CHANNELS 3 Xrotation Yrotation Zrotation
					JOINT RightArm
					{
						OFFSET -7.778100 -0.187103 -1.709300
						CHANNELS 3 Xrotation Yrotation Zrotation
						JOINT RightForeArm
						{
							OFFSET -22.049376 0.000000 0.000000
							CHANNELS 3 Xrotation Yrotation Zrotation
							JOINT RightHand
							{
								OFFSET -23.009392 0.000000 0.000000
								CHANNELS 3 Xrotation Yrotation Zrotation
								JOINT RightHandThumb1
								{
									OFFSET -3.507191 -2.063065 3.133727
									CHANNELS 3 Xrotation Yrotation Zrotation
									JOINT RightHandThumb2
									{
										OFFSET -3.101337 -1.790558 1.790558
										CHANNELS 3 Xrotation Yrotation Zrotation
										JOINT RightHandThumb3
										{
											OFFSET -3.058640 -1.765907 1.765906
											CHANNELS 3 Xrotation Yrotation Zrotation
											End Site
											{
												OFFSET 0.415260 3.926476 -0.049563
											}
										}
									}
								}
								JOINT RightHandIndex1
								{
									OFFSET -11.334419 -0.901459 3.706815
									CHANNELS 3 Xrotation Yrotation Zrotation
									JOINT RightHandIndex2
									{
										OFFSET -3.283112 0.000000 0.000000
										CHANNELS 3 Xrotation Yrotation Zrotation
										JOINT RightHandIndex3
										{
											OFFSET -3.323853 0.000000 0.000000
											CHANNELS 3 Xrotation Yrotation Zrotation
											End Site
											{
												OFFSET 1.135597 3.097809 0.402452
											}
										}
									}
								}
								JOINT RightHandMiddle1
								{
									OFFSET -11.335861 0.000000 0.000000
									CHANNELS 3 Xrotation Yrotation Zrotation
									JOINT RightHandMiddle2
									{
										OFFSET -3.410492 0.000000 0.000000
										CHANNELS 3 Xrotation Yrotation Zrotation
										JOINT RightHandMiddle3
										{
											OFFSET -3.312172 0.000000 0.000000
											CHANNELS 3 Xrotation Yrotation Zrotation
											End Site
											{
												OFFSET 1.150200 3.080154 0.400270
											}
										}
									}
								}
								JOINT RightHandRing1
								{
									OFFSET -11.514786 -0.013176 -3.003090
									CHANNELS 3 Xrotation Yrotation Zrotation
									JOINT RightHandRing2
									{
										OFFSET -3.053307 0.000000 0.000000
										CHANNELS 3 Xrotation Yrotation Zrotation
										JOINT RightHandRing3
										{
											OFFSET -3.295807 0.000000 0.000000
											CHANNELS 3 Xrotation Yrotation Zrotation
											End Site
											{
												OFFSET 1.281006 3.013344 0.375733
											}
										}
									}
								}
								JOINT RightHandPinky1
								{
									OFFSET -10.518692 -0.960396 -5.730441
									CHANNELS 3 Xrotation Yrotation Zrotation
									JOINT RightHandPinky2
									{
										OFFSET -2.861649 0.000000 0.000000
										CHANNELS 3 Xrotation Yrotation Zrotation
										JOINT RightHandPinky3
										{
											OFFSET -2.863380 0.000000 0.000000
											CHANNELS 3 Xrotation Yrotation Zrotation
											End Site
											{
												OFFSET 0.843597 2.711159 0.369971
											}
										}
									}
								}
							}
							JOINT RSleeve
							{
								OFFSET -6.676277 -0.344902 -1.011730
								CHANNELS 3 Xrotation Yrotation Zrotation
								End Site
								{
									OFFSET 0.000000 14.885353 0.000000
								}
							}
						}
					}
				}
				JOINT Backpack
				{
					OFFSET 0.000000 -2.471497 36.677502
					CHANNELS 3 Xrotation Yrotation Zrotation
					End Site
					{
						OFFSET 0.000000 20.427315 0.000000
					}
				}
				JOINT Hood
				{
					OFFSET 0.000000 18.754097 -10.431000
					CHANNELS 3 Xrotation Yrotation Zrotation
					JOINT Hood1
					{
						OFFSET 0.000000 -5.011002 -7.685901
						CHANNELS 3 Xrotation Yrotation Zrotation
						End Site
						{
							OFFSET 0.000000 9.175140 0.000000
						}
					}
				}
				JOINT LHoodieString
				{
					OFFSET 5.250500 16.397697 3.089900
					CHANNELS 3 Xrotation Yrotation Zrotation
					JOINT LHoodieString1
					{
						OFFSET 0.257700 -6.364304 3.694600
						CHANNELS 3 Xrotation Yrotation Zrotation
						JOINT LHoodieString2
						{
							OFFSET 0.000000 -9.643799 2.679100
							CHANNELS 3 Xrotation Yrotation Zrotation
							End Site
							{
								OFFSET 0.000000 10.009018 0.000000
							}
						}
					}
				}
				JOINT RHoodieString
				{
					OFFSET -5.250500 16.397697 3.089900
					CHANNELS 3 Xrotation Yrotation Zrotation
					JOINT RHoodieString1
					{
						OFFSET -0.257700 -6.364304 3.694600
						CHANNELS 3 Xrotation Yrotation Zrotation
						JOINT RHoodieString2
						{
							OFFSET 0.000000 -9.643799 2.679100
							CHANNELS 3 Xrotation Yrotation Zrotation
							End Site
							{
								OFFSET 0.000000 10.009018 0.000000
							}
						}
					}
				}
			}
			JOINT LBackpack_Strap
			{
				OFFSET 15.223200 -7.719803 -6.610900
				CHANNELS 3 Xrotation Yrotation Zrotation
				End Site
				{
					OFFSET 0.000000 16.040596 0.000000
				}
			}
			JOINT RBackpack_Strap
			{
				OFFSET -15.223000 -7.719803 -6.610900
				CHANNELS 3 Xrotation Yrotation Zrotation
				End Site
				{
					OFFSET 0.000000 16.040596 0.000000
				}
			}
		}
	}
	JOINT BoyFacialAnim_Joint
	{
		OFFSET 1.000000 -82.208099 -1.550900
		CHANNELS 3 Xrotation Yrotation Zrotation
		End Site
		{
			OFFSET 0.000000 30.012791 0.000000
		}
	}
}
MOTION
Frames: 4
Frame Time: 0.033333
-2.930933 80.862701 0.882157 -1.650376 -5.772925 0.636456 -0.000000 0.000000 0.000000 -26.919681 7.388549 5.448747 50.946760 6.283794 0.333042 6.323514 0.071895 3.369489 -0.000001 -0.000000 0.000000 -0.000001 -0.000000 0.000000 0.000002 -0.000001 -0.000000 -11.054822 -5.383173 1.490046 25.762782 -9.707707 -0.771927 -13.620839 -8.303946 -0.439079 0.000000 -0.000000 0.000000 0.000000 -0.000000 0.000000 -0.000000 -0.000002 0.000000 2.881694 2.082687 -0.844471 4.874084 4.049863 -1.945703 4.893220 4.090007 -1.801219 -14.884898 -1.291063 1.692561 -0.139444 -2.447239 0.884801 -0.000000 -0.000000 -0.000000 -0.000000 -0.000000 -0.000000 -0.000000 -0.000000 -0.000000 0.732302 0.434077 -7.038212 -14.662669 -20.303572 -68.998134 0.000000 -14.165390 -0.000000 -19.776582 -0.643542 -7.086381 -6.574668 4.751213 0.718368 7.514637 24.097688 2.349985 0.000000 0.000000 -0.000001 0.352375 4.175513 -18.026524 0.162589 1.372022 -13.516146 -0.000001 -0.000001 -0.000002 0.352373 4.175516 -18.026532 0.162587 1.372021 -13.516140 0.000001 -0.000001 -0.000000 0.352382 4.175513 -18.026529 0.162584 1.372017 -13.516150 -0.000001 -0.000000 -0.000002 0.352385 4.175506 -18.026514 0.162590 1.372016 -13.516140 -0.000000 0.000000 -0.000000 0.000001 0.000003 0.000000 -0.018092 -5.034060 5.107875 -25.302714 8.277083 73.916382 0.000004 8.426425 0.000003 33.411349 12.334796 -0.797641 -6.901942 8.181173 -4.018453 18.661127 -19.334100 5.266930 0.000001 0.000003 0.000001 0.267661 -3.695537 17.640507 0.239433 -1.475505 18.433267 -0.000001 0.000001 0.000000 0.267661 -3.695536 17.640509 0.239433 -1.475508 18.433258 -0.000001 0.000001 0.000002 0.267666 -3.695527 17.640509 0.239425 -1.475514 18.433256 -0.000004 -0.000002 0.000003 0.267666 -3.695525 17.640502 0.239433 -1.475511 18.433251 0.000001 0.000000 0.000002 0.000000 0.000000 -0.000002 0.000001 0.000000 -0.000000 0.000001 0.000000 -0.000000 0.000001 0.000000 -0.000000 0.000001 0.000000 -0.000000 0.000001 0.000000 -0.000000 0.000001 -0.000000 -0.000000 0.000001 0.000000 -0.000000 0.000001 0.000000 -0.000000 0.000001 -0.000000 -0.000000 -0.000000 0.000000 0.000000 -0.000000 0.000000 0.000000 -0.000000 0.000000 0.000000 
-2.937582 81.208687 3.537718 -1.325869 -7.030246 0.894081 0.000000 -0.000000 0.000000 -28.317956 7.569985 5.461970 44.585948 6.542205 0.342935 4.321667 -0.006255 1.806990 -0.000000 -0.000001 -0.000000 -0.000000 -0.000001 -0.000000 -0.000002 0.000000 -0.000000 -7.603045 -5.666822 0.822838 22.711955 -9.594825 -0.720792 -14.152822 -7.158286 0.296025 -0.000000 -0.000000 -0.000000 -0.000000 -0.000000 -0.000000 -0.000001 0.000001 0.000000 2.984874 2.326037 -0.984572 5.060137 4.644170 -2.168283 5.083080 4.688425 -2.001086 -14.880634 -1.297906 1.600224 -0.424249 -2.761968 0.873500 -0.000000 -0.000000 -0.000000 -0.000000 -0.000000 -0.000000 -0.000000 -0.000000 -0.000000 0.728812 0.433214 -7.148359 -11.772908 -17.798254 -67.915378 -0.000002 -15.430844 -0.000011 -22.108122 -0.153308 -7.469634 -6.668414 3.391171 0.827190 7.506295 24.033395 2.345075 -0.000001 -0.000001 -0.000000 0.320561 4.074925 -16.994918 0.149527 1.316499 -12.959291 0.000000 0.000001 -0.000003 0.320557 4.074925 -16.994918 0.149531 1.316500 -12.959291 0.000001 -0.000002 -0.000000 0.320568 4.074917 -16.994919 0.149529 1.316496 -12.959298 -0.000000 -0.000001 0.000001 0.320564 4.074919 -16.994906 0.149527 1.316498 -12.959295 -0.000000 0.000002 0.000002 -0.000000 0.000002 0.000000 -0.037510 -4.969878 4.660536 -28.174122 10.233628 74.537083 -0.000007 8.530480 0.000020 32.252843 13.183752 -0.349286 -6.901942 8.181178 -4.018453 18.776987 -19.767928 5.253976 0.000001 0.000001 -0.000003 0.300226 -3.793908 18.914672 0.284263 -1.603684 20.101223 -0.000004 0.000000 -0.000000 0.300227 -3.793906 18.914679 0.284255 -1.603688 20.101223 0.000003 0.000003 0.000000 0.300235 -3.793905 18.914664 0.284254 -1.603677 20.101231 0.000001 0.000001 0.000000 0.300225 -3.793900 18.914670 0.284265 -1.603690 20.101219 0.000000 -0.000000 -0.000002 0.000001 -0.000002 -0.000000 0.000001 -0.000000 -0.000000 0.000001 -0.000000 -0.000000 0.000001 -0.000000 -0.000000 0.000001 -0.000000 -0.000000 0.000001 -0.000000 -0.000000 0.000001 -0.000000 0.000000 0.000001 -0.000000 -0.000000 0.000001 -0.000000 -0.000000 0.000001 -0.000000 0.000000 -0.000000 -0.000000 -0.000000 -0.000000 -0.000000 -0.000000 0.000000 -0.000000 0.000000 
-2.928665 81.468330 6.250431 -0.945507 -7.962378 1.069579 -0.000000 -0.000000 0.000000 -28.565692 7.873511 5.635181 36.036778 7.039571 0.364925 2.879963 -0.007641 0.057839 -0.000001 -0.000000 0.000000 -0.000001 -0.000000 0.000000 -0.000000 -0.000001 -0.000000 -4.165461 -6.067303 0.370822 19.609335 -9.566021 -0.682828 -14.697847 -6.190379 0.203941 0.000000 0.000001 0.000000 0.000000 0.000001 0.000000 -0.000001 -0.000003 0.000001 3.043018 2.499452 -1.070157 5.170276 5.058539 -2.279400 5.194922 5.104893 -2.096612 -15.193592 -1.328142 1.575220 -0.674767 -3.017611 0.857840 0.000000 -0.000000 -0.000000 0.000000 -0.000000 -0.000000 0.000000 -0.000000 -0.000000 0.729555 0.431410 -7.293678 -8.913936 -15.429753 -67.106964 0.000002 -16.545834 -0.000001 -24.510166 0.395178 -7.875796 -6.792723 1.879050 0.843544 7.508377 24.049465 2.346312 -0.000001 0.000001 0.000000 0.288751 3.967456 -15.899210 0.136969 1.260722 -12.400987 -0.000002 0.000003 -0.000001 0.288744 3.967456 -15.899219 0.136972 1.260716 -12.400986 0.000000 0.000002 -0.000001 0.288753 3.967449 -15.899214 0.136972 1.260719 -12.400984 -0.000002 0.000001 0.000002 0.288753 3.967453 -15.899208 0.136971 1.260716 -12.400975 -0.000001 0.000002 0.000002 0.000000 -0.000001 -0.000000 -0.053017 -4.983667 4.417385 -30.852023 12.124805 75.424857 0.000000 8.511386 -0.000001 31.338708 13.902615 -0.224221 -6.901944 8.181175 -4.018457 18.894900 -20.208739 5.241748 0.000006 0.000002 0.000001 0.334018 -3.888946 20.154650 0.338550 -1.744842 21.959231 0.000001 0.000002 0.000002 0.334019 -3.888947 20.154669 0.338546 -1.744841 21.959236 0.000001 -0.000000 0.000001 0.334026 -3.888936 20.154666 0.338547 -1.744840 21.959234 -0.000004 -0.000000 0.000002 0.334028 -3.888934 20.154659 0.338543 -1.744849 21.959227 -0.000003 -0.000001 -0.000003 0.000000 0.000001 0.000000 0.000000 0.000001 -0.000000 0.000000 0.000001 -0.000000 0.000000 0.000001 -0.000000 0.000000 0.000001 -0.000000 0.000000 0.000001 -0.000000 0.000000 0.000000 -0.000000 0.000000 0.000001 -0.000000 0.000000 0.000001 -0.000000 0.000000 0.000000 -0.000000 0.000000 -0.000000 0.000000 0.000000 -0.000000 0.000000 -0.000000 -0.000000 0.000000 
-2.877084 81.576637 9.073771 -0.572660 -8.520533 1.152720 0.000000 0.000001 -0.000000 -27.623411 8.392384 5.710303 25.338028 8.073112 0.411464 2.075788 0.029703 -1.651153 0.000000 0.000001 0.000000 0.000000 0.000001 -0.000000 0.000000 0.000000 0.000000 -0.990118 -6.655992 0.134221 17.035757 -9.641901 -0.658570 -15.517435 -5.332472 -0.738373 0.000000 0.000000 0.000000 0.000000 0.000000 0.000000 -0.000001 -0.000001 0.000000 3.031306 2.615968 -1.109055 5.162041 5.307974 -2.311844 5.185915 5.355650 -2.120725 -15.759174 -1.395928 1.637244 -0.744093 -3.212745 0.834199 -0.000000 0.000000 0.000000 -0.000000 0.000000 0.000000 -0.000000 0.000000 0.000000 0.731438 0.429187 -7.462239 -5.837815 -13.126190 -66.479577 0.000000 -17.755806 0.000002 -27.046564 1.078605 -8.272679 -6.994591 0.062632 0.681654 7.530858 24.222783 2.359492 0.000002 -0.000000 0.000000 0.255605 3.846450 -14.672769 0.124847 1.204245 -11.837154 0.000001 0.000001 -0.000005 0.255605 3.846450 -14.672778 0.124849 1.204243 -11.837135 0.000001 0.000000 0.000000 0.255613 3.846447 -14.672769 0.124844 1.204241 -11.837161 -0.000001 0.000002 0.000002 0.255607 3.846448 -14.672769 0.124845 1.204246 -11.837140 0.000000 0.000001 -0.000002 0.000002 0.000000 -0.000001 -0.071886 -5.121269 4.461447 -33.122357 13.982219 76.474903 -0.000003 8.342623 0.000011 30.474077 14.585613 -0.346381 -6.901948 8.181172 -4.018456 19.017308 -20.665338 5.230073 -0.000001 -0.000002 0.000003 0.368035 -3.978575 21.333333 0.410003 -1.912463 24.198325 0.000002 -0.000001 0.000002 0.368036 -3.978570 21.333329 0.410007 -1.912454 24.198341 0.000003 -0.000000 -0.000002 0.368045 -3.978557 21.333329 0.410000 -1.912463 24.198337 0.000004 0.000001 0.000001 0.368039 -3.978563 21.333322 0.410012 -1.912463 24.198324 -0.000001 -0.000001 0.000000 -0.000000 -0.000002 0.000001 0.000000 0.000000 0.000000 0.000000 0.000000 0.000000 0.000000 0.000000 0.000000 0.000000 0.000000 0.000000 0.000000 0.000000 -0.000000 0.000000 -0.000000 0.000000 0.000000 0.000000 0.000000 0.000000 0.000000 -0.000000 0.000000 -0.000000 0.000000 0.000001 0.000000 -0.000000 0.000001 0.000000 -0.000000 0.000000 0.000001 -0.000000 
